<svg width="1773" height="1773" viewBox="0 0 1773 1773" fill="none" xmlns="http://www.w3.org/2000/svg">
<g clip-path="url(#clip0_15_3764)">
<path d="M1703.74 0C1741.56 2.84 1770.08 31.4 1773 69.2V1703.74C1772.71 1706.17 1772.38 1708.6 1771.99 1711.02C1769.75 1725.08 1763.97 1737.45 1754.64 1748.14C1743.61 1760.78 1729.47 1768.66 1712.22 1771.77C1709.42 1772.27 1706.61 1772.68 1703.78 1773H69.27C66.8433 1772.72 64.42 1772.39 62 1772.02C30.97 1767.27 6.57 1743.1 1.08 1712.24C0.793333 1710.63 0.433333 1707.81 0 1703.78V69.2C2.89 31.41 31.42 2.91 69.2 0H1703.74Z" fill="white"/>
<path d="M911.13 686.04C911.33 686.04 911.656 685.66 912.11 684.9C950.663 620.087 981.053 568.957 1003.28 531.51C1003.51 531.123 1003.83 530.802 1004.22 530.579C1004.62 530.357 1005.06 530.24 1005.51 530.24H1093.37C1093.46 530.241 1093.54 530.265 1093.62 530.308C1093.69 530.351 1093.75 530.413 1093.79 530.487C1093.84 530.562 1093.86 530.645 1093.86 530.73C1093.86 530.815 1093.83 530.898 1093.79 530.97C1085.9 544.23 1038.26 624.367 950.89 771.38C950.31 772.36 950.023 773.983 950.03 776.25C950.083 847.33 950.086 894.81 950.04 918.69C950.04 918.836 949.982 918.976 949.879 919.079C949.775 919.182 949.636 919.24 949.49 919.24C936.05 919.267 923.263 919.28 911.13 919.28C898.99 919.28 886.203 919.267 872.77 919.24C872.624 919.24 872.484 919.182 872.381 919.079C872.278 918.976 872.22 918.836 872.22 918.69C872.173 894.81 872.176 847.33 872.23 776.25C872.236 773.983 871.95 772.36 871.37 771.38C783.996 624.367 736.363 544.23 728.47 530.97C728.426 530.898 728.402 530.815 728.401 530.73C728.401 530.645 728.423 530.562 728.465 530.487C728.508 530.413 728.57 530.351 728.644 530.308C728.719 530.265 728.803 530.241 728.89 530.24H816.75C817.201 530.24 817.643 530.357 818.035 530.579C818.426 530.802 818.751 531.123 818.98 531.51C841.206 568.957 871.596 620.087 910.15 684.9C910.603 685.66 910.93 686.04 911.13 686.04Z" fill="#20BE78"/>
<path d="M655.44 1082.37C655.42 1100.25 662.56 1120.53 684.4 1119.9C695.973 1119.56 704.313 1113.92 709.42 1102.98C709.482 1102.85 709.581 1102.74 709.705 1102.66C709.829 1102.58 709.973 1102.54 710.12 1102.54H746.37C746.503 1102.54 746.634 1102.57 746.754 1102.63C746.874 1102.68 746.98 1102.77 747.064 1102.87C747.147 1102.98 747.206 1103.1 747.237 1103.23C747.267 1103.36 747.268 1103.49 747.24 1103.62C743.347 1121.17 734.453 1134.59 720.56 1143.86C688.92 1164.98 644.04 1154.81 626.26 1121.23C619.62 1108.69 617.53 1096.26 617.55 1082.34C617.56 1068.41 619.67 1055.99 626.33 1043.45C644.17 1009.91 689.06 999.82 720.67 1020.99C734.543 1030.29 743.413 1043.72 747.28 1061.28C747.308 1061.41 747.307 1061.54 747.277 1061.67C747.246 1061.8 747.187 1061.92 747.104 1062.03C747.02 1062.13 746.914 1062.22 746.794 1062.27C746.674 1062.33 746.543 1062.36 746.41 1062.36L710.16 1062.29C710.013 1062.29 709.869 1062.25 709.745 1062.17C709.621 1062.09 709.522 1061.98 709.46 1061.85C704.367 1050.9 696.037 1045.25 684.47 1044.89C662.63 1044.22 655.46 1064.49 655.44 1082.37Z" fill="#20BE78"/>
<path d="M903.75 1082.36C903.75 1101.58 896.114 1120.01 882.524 1133.6C868.933 1147.19 850.5 1154.83 831.28 1154.83C812.059 1154.83 793.626 1147.19 780.036 1133.6C766.445 1120.01 758.81 1101.58 758.81 1082.36C758.81 1063.14 766.445 1044.71 780.036 1031.12C793.626 1017.53 812.059 1009.89 831.28 1009.89C850.5 1009.89 868.933 1017.53 882.524 1031.12C896.114 1044.71 903.75 1063.14 903.75 1082.36Z" fill="#20BE78"/>
<path d="M978.63 1085.72C978.777 1085.72 978.913 1085.69 979.04 1085.62C979.133 1085.57 979.22 1085.47 979.3 1085.31C985.247 1074.07 997.94 1050.22 1017.38 1013.77C1017.48 1013.58 1017.64 1013.41 1017.83 1013.3C1018.01 1013.19 1018.23 1013.13 1018.45 1013.13H1056.42C1056.57 1013.13 1056.71 1013.17 1056.84 1013.24C1056.97 1013.31 1057.07 1013.42 1057.15 1013.54C1057.22 1013.67 1057.27 1013.81 1057.27 1013.95C1057.27 1014.1 1057.24 1014.24 1057.17 1014.37L982.17 1153.37C982.098 1153.51 982.011 1153.64 981.91 1153.75C981.29 1154.44 980.19 1154.79 978.61 1154.79C977.03 1154.79 975.93 1154.44 975.31 1153.75C975.209 1153.64 975.122 1153.51 975.05 1153.37L900.14 1014.32C900.071 1014.19 900.037 1014.05 900.04 1013.9C900.044 1013.76 900.086 1013.62 900.161 1013.49C900.237 1013.37 900.344 1013.26 900.471 1013.19C900.599 1013.12 900.743 1013.08 900.89 1013.08L938.86 1013.1C939.079 1013.1 939.295 1013.16 939.484 1013.27C939.672 1013.38 939.826 1013.55 939.93 1013.74C959.35 1050.21 972.03 1074.06 977.97 1085.31C978.05 1085.47 978.136 1085.57 978.23 1085.62C978.35 1085.69 978.483 1085.72 978.63 1085.72Z" fill="#20BE78"/>
<path d="M1240.38 617.06L1240.36 617.05C1240.29 617.029 1240.22 616.992 1240.17 616.942C1240.11 616.893 1240.07 616.831 1240.04 616.763C1240.01 616.694 1239.99 616.62 1239.99 616.545C1240 616.47 1240.02 616.397 1240.05 616.33C1240.62 615.23 1240.41 613.72 1239.44 611.8C1233.46 600.01 1215.99 608.68 1221.76 620.87C1221.83 621.016 1221.84 621.183 1221.8 621.34C1221.75 621.497 1221.65 621.632 1221.51 621.72C1221.33 621.833 1221.03 621.93 1220.6 622.01C1217.61 622.56 1215.1 626.69 1214.32 629.45C1214.21 629.829 1214.02 630.179 1213.76 630.476C1213.5 630.773 1213.18 631.01 1212.82 631.17C1189.51 641.63 1170.81 660.38 1158.77 682.64C1151.17 696.68 1148.62 711.02 1146.47 726.67C1145.77 731.76 1140.49 729.22 1137.46 727.8C1134.48 726.4 1130.87 724.547 1126.63 722.24C1122.02 719.74 1118.29 718.22 1115.43 717.68C1105.35 715.79 1097.75 718.45 1088.52 721.79C1087.97 721.983 1086.97 721.94 1085.51 721.66C1085.37 721.633 1085.24 721.555 1085.16 721.442C1085.07 721.329 1085.04 721.189 1085.05 721.05C1087.43 694.18 1095.09 668.21 1108.77 645.08C1117.66 630.053 1129.37 616.23 1143.91 603.61C1180.6 571.75 1226.13 557.43 1274.71 558.2C1274.92 558.206 1275.13 558.127 1275.29 557.982C1275.45 557.836 1275.55 557.635 1275.56 557.42C1276.05 549.573 1276.26 541.53 1276.19 533.29C1276.14 526.74 1277.53 521.38 1283.23 518.96C1290.67 515.8 1295.79 518.42 1301.51 523.49C1343.64 560.817 1367.37 582.003 1372.68 587.05C1379.55 593.58 1380.91 604.18 1374.51 611.51C1372.42 613.897 1369.58 616.15 1366.01 618.27C1345.76 630.277 1322.89 644.16 1297.4 659.92C1290.3 664.31 1279.72 666.84 1276.47 656.36C1275.53 653.307 1275.06 649.603 1275.07 645.25C1275.1 632.297 1275.11 624.353 1275.09 621.42C1275.09 621.277 1275.04 621.139 1274.95 621.029C1274.86 620.92 1274.73 620.846 1274.59 620.82C1270.48 620.073 1266.31 619.91 1262.06 620.33C1261.98 620.337 1261.91 620.328 1261.84 620.304C1261.77 620.279 1261.7 620.239 1261.65 620.187C1261.59 620.134 1261.55 620.071 1261.52 620.001C1261.5 619.93 1261.49 619.855 1261.49 619.78C1262.12 611.3 1264.68 602.36 1267.83 594.3C1268.98 591.373 1269.48 589.383 1269.34 588.33C1268.93 585.28 1265.35 582.21 1262.12 583.11C1260.51 583.557 1259.22 584.437 1258.26 585.75C1254.45 590.943 1251.07 596.133 1248.1 601.32C1245.58 605.713 1243.24 610.843 1241.09 616.71C1241.04 616.847 1240.94 616.96 1240.8 617.025C1240.67 617.09 1240.52 617.102 1240.38 617.06Z" fill="#384647"/>
<path d="M1262.71 590.11C1262.74 590.114 1262.76 590.125 1262.79 590.14C1262.81 590.155 1262.83 590.176 1262.84 590.199C1262.85 590.222 1262.86 590.248 1262.86 590.274C1262.87 590.3 1262.86 590.326 1262.85 590.35C1255.46 608.577 1252.95 627.563 1255.3 647.31C1256.9 660.75 1260.26 674.177 1265.39 687.59C1273.59 709.05 1281.76 725.28 1294.05 751.2C1306.73 777.91 1317.95 806.16 1311.93 836.32C1309.36 849.18 1303.7 861.313 1294.95 872.72C1291.12 877.71 1281.88 887.63 1274.83 895.84C1274.77 895.918 1274.68 895.97 1274.58 895.986C1274.48 896.003 1274.38 895.982 1274.3 895.928C1274.22 895.875 1274.16 895.792 1274.13 895.696C1274.1 895.6 1274.11 895.498 1274.16 895.41C1278.85 885.523 1283.2 876.04 1287.21 866.96C1290.13 860.347 1292.54 853.853 1294.44 847.48C1299.84 829.37 1297.1 808.61 1289.6 790.85C1287.07 784.843 1284.24 778.937 1281.11 773.13C1268.68 750.01 1258.08 730.72 1250.3 707.99C1245.89 695.123 1242.95 681.38 1241.46 666.76C1238.64 638.96 1245.34 612.46 1262.64 590.13C1262.64 590.125 1262.65 590.121 1262.65 590.117C1262.65 590.113 1262.66 590.11 1262.66 590.109C1262.67 590.107 1262.67 590.106 1262.67 590.106C1262.68 590.106 1262.68 590.108 1262.68 590.11C1262.69 590.11 1262.7 590.11 1262.71 590.11Z" fill="#384647"/>
<path d="M631.38 727.32C627.34 722.37 626.02 717.34 625.14 710.99C623.57 699.68 621.77 688.29 621.54 679.94C621.36 673.333 621.126 667.647 620.84 662.88C620.12 650.99 615.68 643.76 607.06 636L683.02 524.02C683.134 523.853 683.287 523.717 683.467 523.623C683.646 523.529 683.846 523.48 684.05 523.48H691.61C691.839 523.481 692.061 523.564 692.232 523.715C692.403 523.866 692.513 524.074 692.54 524.3L739.84 918.44C739.853 918.54 739.844 918.641 739.814 918.737C739.784 918.833 739.734 918.922 739.667 918.997C739.6 919.073 739.517 919.133 739.425 919.175C739.332 919.217 739.232 919.239 739.13 919.24H662.9C662.706 919.239 662.518 919.169 662.373 919.042C662.228 918.915 662.134 918.74 662.11 918.55C661.71 915.183 661.293 911.743 660.86 908.23C646.986 795.657 639.643 736.29 638.83 730.13C638.403 726.917 638.063 723.503 637.81 719.89C637.79 719.563 637.733 719.337 637.64 719.21C637.591 719.143 637.527 719.089 637.453 719.052C637.379 719.015 637.297 718.997 637.215 718.999C637.132 719.001 637.051 719.023 636.979 719.063C636.906 719.104 636.845 719.161 636.8 719.23L631.38 727.32Z" fill="#1ADF87"/>
<path d="M607.06 636C615.68 643.76 620.12 650.99 620.84 662.88C621.126 667.647 621.36 673.333 621.54 679.94C621.77 688.29 623.57 699.68 625.14 710.99C626.02 717.34 627.34 722.37 631.38 727.32L536.81 866.61C536.502 867.065 536.029 867.384 535.49 867.5C532.31 868.153 529.373 868.063 526.68 867.23C526.285 867.107 525.943 866.853 525.71 866.51L425.97 719.48C425.889 719.361 425.773 719.27 425.639 719.218C425.505 719.167 425.358 719.157 425.218 719.191C425.078 719.224 424.952 719.3 424.856 719.407C424.76 719.514 424.698 719.647 424.68 719.79L400.79 918.83C400.78 918.934 400.73 919.031 400.651 919.102C400.571 919.172 400.467 919.211 400.36 919.21H323.63C323.544 919.211 323.459 919.193 323.38 919.158C323.302 919.123 323.231 919.071 323.175 919.007C323.118 918.942 323.075 918.867 323.05 918.784C323.025 918.702 323.018 918.615 323.03 918.53L370.35 524.21C370.369 524.039 370.446 523.88 370.568 523.758C370.689 523.636 370.849 523.559 371.02 523.54C372.92 523.31 378.28 522.8 379.88 524.14C379.999 524.233 380.104 524.344 380.19 524.47L531.16 747.01C531.179 747.039 531.205 747.063 531.235 747.079C531.266 747.095 531.3 747.104 531.335 747.104C531.369 747.104 531.404 747.095 531.434 747.079C531.465 747.063 531.491 747.039 531.51 747.01L607.06 636Z" fill="#1ADF87"/>
<path d="M476.77 1151.55H435.15C434.644 1151.55 434.146 1151.43 433.694 1151.2C433.243 1150.97 432.851 1150.64 432.55 1150.23C410.883 1120.84 392.986 1096.65 378.86 1077.64C376.34 1074.25 374.606 1071.82 373.66 1070.35C371.88 1067.6 372.443 1065.48 375.35 1064.01C388.396 1057.41 396.573 1053.28 399.88 1051.62C411.59 1045.75 417.23 1037.81 416.64 1024.37C416.22 1014.95 410.73 1006.87 401.72 1003.47C398.606 1002.3 392.893 1001.81 384.58 1002C381.953 1002.06 374.07 1002.07 360.93 1002.03C360.782 1002.03 360.635 1002.06 360.498 1002.11C360.361 1002.17 360.236 1002.25 360.131 1002.35C360.026 1002.46 359.943 1002.58 359.886 1002.72C359.829 1002.86 359.8 1003 359.8 1003.15V1150.89C359.8 1150.98 359.783 1151.06 359.75 1151.14C359.718 1151.22 359.67 1151.3 359.609 1151.36C359.549 1151.42 359.477 1151.47 359.398 1151.5C359.32 1151.53 359.235 1151.55 359.15 1151.55H323.84C323.686 1151.55 323.538 1151.49 323.43 1151.38C323.321 1151.27 323.26 1151.12 323.26 1150.97V968.62C323.26 968.501 323.307 968.386 323.392 968.302C323.476 968.217 323.59 968.17 323.71 968.17C348.83 968.09 373.176 968.087 396.75 968.16C402.89 968.18 408.3 968.733 412.98 969.82C439.38 975.92 454.13 998.69 453.71 1025.01C453.37 1046.81 441.45 1063.83 422.14 1073.28C422.054 1073.32 421.978 1073.38 421.918 1073.46C421.858 1073.53 421.815 1073.62 421.792 1073.71C421.769 1073.8 421.767 1073.9 421.786 1073.99C421.804 1074.08 421.843 1074.17 421.9 1074.25L477.29 1150.52C477.359 1150.62 477.401 1150.73 477.41 1150.85C477.42 1150.97 477.396 1151.09 477.343 1151.19C477.289 1151.3 477.207 1151.39 477.106 1151.45C477.005 1151.51 476.889 1151.55 476.77 1151.55Z" fill="#1ADF87"/>
<path d="M603.42 1093.97H510.95C510.801 1093.97 510.655 1094 510.52 1094.06C510.385 1094.12 510.264 1094.21 510.167 1094.33C510.069 1094.44 509.997 1094.57 509.954 1094.71C509.912 1094.85 509.9 1095 509.92 1095.15C510.066 1096.18 510.7 1098.44 511.82 1101.94C516.7 1117.15 529.68 1124.86 545.36 1122.13C555.46 1120.38 562.56 1113.78 565.61 1104.2C565.674 1103.99 565.802 1103.81 565.977 1103.69C566.151 1103.56 566.363 1103.49 566.58 1103.49H602.75C602.873 1103.49 602.995 1103.52 603.107 1103.57C603.219 1103.62 603.318 1103.7 603.397 1103.79C603.476 1103.88 603.534 1104 603.565 1104.11C603.597 1104.23 603.602 1104.36 603.58 1104.48C595.15 1152 535.68 1168.8 499.58 1141.15C476.38 1123.39 470.01 1092.57 475.77 1064.75C481.48 1037.18 502.6 1015.47 530.82 1011.62C548.46 1009.21 566.06 1014.68 579.56 1026.16C593.97 1038.43 602.32 1056.93 603.5 1075.76C603.873 1081.69 603.983 1087.63 603.83 1093.57C603.827 1093.68 603.783 1093.78 603.706 1093.85C603.63 1093.93 603.527 1093.97 603.42 1093.97Z" fill="#1ADF87"/>
<path d="M1222.67 657.69C1226.32 657.69 1229.28 654.731 1229.28 651.08C1229.28 647.429 1226.32 644.47 1222.67 644.47C1219.02 644.47 1216.06 647.429 1216.06 651.08C1216.06 654.731 1219.02 657.69 1222.67 657.69Z" fill="#22AD70"/>
<path d="M1222.87 680.53C1226.82 680.53 1230.02 677.329 1230.02 673.38C1230.02 669.431 1226.82 666.23 1222.87 666.23C1218.92 666.23 1215.72 669.431 1215.72 673.38C1215.72 677.329 1218.92 680.53 1222.87 680.53Z" fill="#22AD70"/>
<path d="M1227.53 706.91C1232.19 706.91 1235.96 703.136 1235.96 698.48C1235.96 693.824 1232.19 690.05 1227.53 690.05C1222.87 690.05 1219.1 693.824 1219.1 698.48C1219.1 703.136 1222.87 706.91 1227.53 706.91Z" fill="#22AD70"/>
<path d="M1239.01 736.98C1244.66 736.98 1249.24 732.4 1249.24 726.75C1249.24 721.1 1244.66 716.52 1239.01 716.52C1233.36 716.52 1228.78 721.1 1228.78 726.75C1228.78 732.4 1233.36 736.98 1239.01 736.98Z" fill="#22AD70"/>
<path d="M1183.49 1093.96H1091.04C1090.89 1093.96 1090.74 1093.99 1090.61 1094.05C1090.47 1094.11 1090.35 1094.2 1090.26 1094.32C1090.16 1094.43 1090.09 1094.56 1090.04 1094.7C1090 1094.84 1089.99 1094.99 1090.01 1095.14C1090.16 1096.17 1090.79 1098.43 1091.91 1101.93C1096.79 1117.14 1109.76 1124.85 1125.44 1122.12C1135.54 1120.37 1142.64 1113.77 1145.69 1104.19C1145.75 1103.98 1145.88 1103.8 1146.06 1103.68C1146.23 1103.55 1146.44 1103.48 1146.66 1103.48H1182.83C1182.95 1103.48 1183.07 1103.51 1183.18 1103.56C1183.29 1103.61 1183.39 1103.69 1183.47 1103.78C1183.55 1103.88 1183.6 1103.99 1183.64 1104.11C1183.67 1104.23 1183.67 1104.35 1183.65 1104.47C1175.23 1151.98 1115.76 1168.78 1079.67 1141.14C1056.47 1123.38 1050.1 1092.56 1055.86 1064.75C1061.57 1037.18 1082.69 1015.47 1110.9 1011.62C1128.54 1009.21 1146.14 1014.68 1159.64 1026.16C1174.05 1038.43 1182.39 1056.93 1183.57 1075.75C1183.94 1081.68 1184.05 1087.62 1183.9 1093.56C1183.9 1093.67 1183.85 1093.77 1183.78 1093.84C1183.7 1093.92 1183.6 1093.96 1183.49 1093.96Z" fill="#22AD70"/>
<path d="M1280.17 1013V1050.9C1280.17 1051.03 1280.14 1051.15 1280.07 1051.26C1280.01 1051.37 1279.92 1051.46 1279.81 1051.53C1279.7 1051.59 1279.58 1051.63 1279.45 1051.63C1279.33 1051.63 1279.2 1051.6 1279.09 1051.54L1245.74 1033.55C1245.61 1033.48 1245.5 1033.37 1245.44 1033.24C1245.37 1033.11 1245.34 1032.97 1245.36 1032.82L1245.68 1030.15C1245.69 1030.03 1245.74 1029.92 1245.81 1029.82C1245.87 1029.72 1245.96 1029.64 1246.07 1029.59L1279.1 1012.36C1279.21 1012.3 1279.33 1012.27 1279.46 1012.28C1279.58 1012.28 1279.71 1012.32 1279.81 1012.38C1279.92 1012.44 1280.01 1012.53 1280.07 1012.64C1280.14 1012.75 1280.17 1012.87 1280.17 1013Z" fill="#22AD70"/>
<path d="M1237.65 1013.11H1203.47C1203.16 1013.11 1202.9 1013.37 1202.9 1013.68V1151C1202.9 1151.31 1203.16 1151.57 1203.47 1151.57H1237.65C1237.97 1151.57 1238.22 1151.31 1238.22 1151V1013.68C1238.22 1013.37 1237.97 1013.11 1237.65 1013.11Z" fill="#22AD70"/>
<path d="M651.47 1285.02C650.617 1285.02 650.164 1284.54 650.11 1283.58C649.99 1281.43 650.004 1279.09 650.15 1276.58C650.196 1275.86 650.014 1275.14 649.63 1274.53L639.76 1258.47C639.694 1258.36 639.659 1258.24 639.656 1258.11C639.654 1257.99 639.686 1257.86 639.748 1257.75C639.81 1257.64 639.901 1257.55 640.01 1257.49C640.12 1257.42 640.244 1257.39 640.37 1257.39H640.78C641.196 1257.39 641.605 1257.5 641.967 1257.7C642.329 1257.9 642.633 1258.19 642.85 1258.54L651.24 1272.18C651.246 1272.19 651.253 1272.2 651.26 1272.21C651.327 1272.26 651.407 1272.28 651.5 1272.28C651.594 1272.28 651.674 1272.26 651.74 1272.21C651.748 1272.2 651.755 1272.19 651.76 1272.18L660.22 1258.59C660.438 1258.24 660.743 1257.95 661.105 1257.75C661.467 1257.55 661.875 1257.45 662.29 1257.45H662.7C662.827 1257.45 662.951 1257.48 663.06 1257.55C663.17 1257.61 663.26 1257.7 663.323 1257.81C663.385 1257.92 663.416 1258.05 663.414 1258.17C663.412 1258.3 663.376 1258.42 663.31 1258.53L653.36 1274.54C652.969 1275.15 652.781 1275.87 652.82 1276.59C652.954 1279.1 652.957 1281.44 652.83 1283.59C652.77 1284.54 652.317 1285.02 651.47 1285.02Z" fill="#040739"/>
<path d="M859.891 1271.04C859.9 1269.22 860.282 1267.41 861.013 1265.72C861.744 1264.04 862.81 1262.51 864.151 1261.22C865.492 1259.94 867.082 1258.92 868.829 1258.23C870.576 1257.54 872.446 1257.19 874.333 1257.2C878.145 1257.22 881.792 1258.71 884.473 1261.33C887.154 1263.95 888.65 1267.5 888.63 1271.2C888.621 1273.02 888.24 1274.83 887.509 1276.52C886.778 1278.2 885.711 1279.73 884.37 1281.02C883.029 1282.3 881.439 1283.32 879.692 1284.01C877.945 1284.7 876.075 1285.05 874.188 1285.04C870.377 1285.02 866.729 1283.53 864.048 1280.91C861.367 1278.28 859.871 1274.74 859.891 1271.04Z" fill="#040739"/>
<path d="M988.61 1280.59L988.68 1280.36C988.721 1280.21 988.795 1280.08 988.896 1279.97C988.998 1279.86 989.124 1279.77 989.265 1279.72C989.406 1279.66 989.557 1279.64 989.707 1279.66C989.858 1279.67 990.002 1279.72 990.13 1279.8C994.16 1282.38 999.14 1283.71 1003.46 1281.27C1005.88 1279.9 1006.84 1276.15 1004.05 1274.5C1000.79 1272.59 996.74 1272.22 993.56 1271.04C987 1268.6 987.68 1260.18 993.93 1258.14C997.997 1256.81 1002.15 1257.08 1006.38 1258.97C1006.7 1259.11 1006.96 1259.37 1007.09 1259.69C1007.23 1260.02 1007.23 1260.38 1007.11 1260.71L1007.05 1260.88C1006.99 1261.03 1006.9 1261.17 1006.79 1261.28C1006.68 1261.39 1006.54 1261.48 1006.39 1261.54C1006.24 1261.6 1006.08 1261.62 1005.92 1261.61C1005.77 1261.6 1005.61 1261.56 1005.47 1261.48C1002.36 1259.84 999.187 1259.4 995.96 1260.17C991.64 1261.21 989.96 1266.52 994.63 1268.44C995.643 1268.85 998.613 1269.76 1003.54 1271.15C1010.89 1273.23 1009.87 1282.61 1002.9 1284.36C998.133 1285.55 993.633 1284.93 989.4 1282.5C989.076 1282.31 988.822 1282.03 988.679 1281.68C988.536 1281.33 988.512 1280.95 988.61 1280.59Z" fill="#040739"/>
<path d="M618 1271.18C618.16 1271.29 618.487 1271.42 618.98 1271.56C620.73 1272.04 621.92 1274.63 622.04 1276.15C622.473 1281.36 619.86 1284.16 614.2 1284.54C610.973 1284.75 606.423 1284.82 600.55 1284.73C600.235 1284.72 599.935 1284.6 599.714 1284.37C599.494 1284.14 599.37 1283.84 599.37 1283.52V1258.16C599.37 1258.08 599.386 1258 599.416 1257.93C599.446 1257.85 599.49 1257.79 599.546 1257.73C599.602 1257.67 599.668 1257.63 599.741 1257.6C599.813 1257.57 599.891 1257.55 599.97 1257.55C606.703 1257.47 611.367 1257.53 613.96 1257.73C620.85 1258.27 623.01 1265.84 617.95 1270.3C617.886 1270.36 617.836 1270.43 617.803 1270.5C617.771 1270.58 617.756 1270.67 617.761 1270.75C617.766 1270.84 617.79 1270.92 617.831 1270.99C617.873 1271.07 617.93 1271.13 618 1271.18Z" fill="#040739"/>
<path d="M712.43 1282.2H727.95C728.037 1282.2 728.121 1282.23 728.183 1282.3C728.245 1282.36 728.28 1282.44 728.28 1282.53V1284.28C728.28 1284.37 728.245 1284.45 728.183 1284.51C728.121 1284.58 728.037 1284.61 727.95 1284.61H709.59C709.546 1284.61 709.503 1284.6 709.463 1284.58C709.423 1284.57 709.387 1284.54 709.356 1284.51C709.326 1284.48 709.301 1284.45 709.285 1284.41C709.268 1284.37 709.26 1284.32 709.26 1284.28V1258.11C709.26 1258.07 709.268 1258.02 709.285 1257.98C709.301 1257.94 709.326 1257.91 709.356 1257.88C709.387 1257.85 709.423 1257.82 709.463 1257.81C709.503 1257.79 709.546 1257.78 709.59 1257.78H727.15C727.21 1257.78 727.269 1257.8 727.32 1257.83C727.371 1257.86 727.412 1257.91 727.44 1257.96L728.18 1259.37C728.205 1259.42 728.218 1259.48 728.216 1259.53C728.214 1259.59 728.197 1259.64 728.168 1259.69C728.139 1259.74 728.098 1259.78 728.05 1259.81C728.001 1259.83 727.946 1259.85 727.89 1259.85H712.4C712.312 1259.85 712.228 1259.88 712.166 1259.95C712.104 1260.01 712.07 1260.09 712.07 1260.18V1269.4C712.07 1269.49 712.104 1269.57 712.166 1269.63C712.228 1269.7 712.312 1269.73 712.4 1269.73H725.99C726.077 1269.73 726.161 1269.76 726.223 1269.83C726.285 1269.89 726.32 1269.97 726.32 1270.06V1271.77C726.32 1271.86 726.285 1271.94 726.223 1272C726.161 1272.07 726.077 1272.1 725.99 1272.1H712.43C712.342 1272.1 712.258 1272.13 712.196 1272.2C712.135 1272.26 712.1 1272.34 712.1 1272.43V1281.87C712.1 1281.96 712.135 1282.04 712.196 1282.1C712.258 1282.17 712.342 1282.2 712.43 1282.2Z" fill="#040739"/>
<path d="M777.28 1280.53L777.35 1280.3C777.392 1280.15 777.467 1280.02 777.57 1279.91C777.672 1279.8 777.799 1279.71 777.94 1279.66C778.081 1279.6 778.232 1279.59 778.382 1279.6C778.531 1279.62 778.674 1279.67 778.8 1279.75C782.82 1282.35 787.79 1283.7 792.11 1281.29C794.54 1279.93 795.52 1276.19 792.74 1274.53C789.49 1272.6 785.45 1272.21 782.27 1271.01C775.73 1268.54 776.45 1260.13 782.71 1258.13C786.777 1256.82 790.923 1257.11 795.15 1259.02C795.47 1259.16 795.722 1259.42 795.856 1259.75C795.99 1260.07 795.995 1260.43 795.87 1260.76L795.81 1260.93C795.754 1261.08 795.666 1261.22 795.552 1261.33C795.438 1261.45 795.301 1261.53 795.15 1261.59C794.999 1261.65 794.838 1261.67 794.677 1261.66C794.517 1261.64 794.361 1261.6 794.22 1261.52C791.12 1259.87 787.957 1259.41 784.73 1260.16C780.4 1261.18 778.7 1266.48 783.36 1268.42C784.367 1268.84 787.33 1269.76 792.25 1271.18C799.58 1273.29 798.51 1282.66 791.54 1284.37C786.773 1285.54 782.28 1284.9 778.06 1282.45C777.735 1282.26 777.482 1281.97 777.341 1281.62C777.2 1281.28 777.178 1280.89 777.28 1280.53Z" fill="#040739"/>
<path d="M821.72 1276.61V1283.66C821.72 1283.83 821.687 1284 821.622 1284.15C821.557 1284.31 821.462 1284.45 821.342 1284.57C821.222 1284.69 821.08 1284.79 820.924 1284.85C820.767 1284.92 820.599 1284.95 820.43 1284.95H819.96C819.695 1284.95 819.44 1284.84 819.253 1284.66C819.065 1284.47 818.96 1284.22 818.96 1283.95V1258.18C818.96 1258.03 819.017 1257.89 819.12 1257.78C819.223 1257.67 819.363 1257.61 819.51 1257.61C825.57 1257.46 833.19 1256.54 837.48 1260.19C841.45 1263.58 841.07 1270.54 837.22 1273.75C833.68 1276.71 826.71 1276.35 822.36 1276.01C822.278 1276 822.196 1276.01 822.119 1276.04C822.042 1276.07 821.971 1276.11 821.91 1276.17C821.85 1276.22 821.802 1276.29 821.769 1276.37C821.737 1276.44 821.72 1276.53 821.72 1276.61Z" fill="#040739"/>
<path d="M931.52 1283.65C931.601 1283.76 931.649 1283.89 931.66 1284.03C931.67 1284.16 931.643 1284.3 931.579 1284.42C931.516 1284.54 931.42 1284.65 931.302 1284.72C931.184 1284.79 931.048 1284.83 930.91 1284.83H930.48C930.044 1284.83 929.614 1284.73 929.226 1284.53C928.839 1284.33 928.504 1284.04 928.25 1283.69L923.15 1276.67C923.026 1276.5 922.863 1276.36 922.674 1276.27C922.484 1276.17 922.274 1276.12 922.06 1276.12H913.92C913.813 1276.12 913.708 1276.14 913.61 1276.18C913.513 1276.22 913.424 1276.29 913.35 1276.36C913.277 1276.44 913.219 1276.53 913.181 1276.63C913.143 1276.73 913.126 1276.83 913.13 1276.94L913.33 1283.21C913.338 1283.43 913.301 1283.66 913.22 1283.87C913.14 1284.08 913.018 1284.27 912.862 1284.43C912.707 1284.59 912.52 1284.72 912.313 1284.81C912.106 1284.9 911.884 1284.94 911.66 1284.94H911.41C911.115 1284.94 910.833 1284.82 910.625 1284.61C910.417 1284.41 910.3 1284.12 910.3 1283.83V1257.96C910.3 1257.88 910.331 1257.8 910.387 1257.74C910.443 1257.69 910.519 1257.65 910.6 1257.65C915.72 1257.42 920.08 1257.48 923.68 1257.82C932.69 1258.68 934.87 1271.3 926.73 1274.84C926.583 1274.9 926.452 1275 926.347 1275.12C926.242 1275.25 926.166 1275.39 926.123 1275.55C926.081 1275.7 926.074 1275.86 926.103 1276.02C926.132 1276.18 926.196 1276.33 926.29 1276.46L931.52 1283.65Z" fill="#040739"/>
<path d="M960.26 1257.62C963.694 1257.69 967.124 1257.73 970.55 1257.73C970.69 1257.73 970.828 1257.76 970.956 1257.81C971.084 1257.87 971.2 1257.95 971.295 1258.05C971.389 1258.15 971.462 1258.27 971.508 1258.4C971.554 1258.53 971.572 1258.67 971.56 1258.81L971.52 1259.13C971.493 1259.39 971.371 1259.63 971.177 1259.81C970.984 1259.98 970.732 1260.08 970.47 1260.08H962.24C962.154 1260.08 962.069 1260.1 961.989 1260.13C961.91 1260.16 961.838 1260.21 961.777 1260.27C961.717 1260.33 961.669 1260.4 961.637 1260.48C961.605 1260.56 961.589 1260.65 961.59 1260.73C961.67 1267.77 961.62 1275.03 961.44 1282.5C961.4 1284.21 960.99 1285.06 960.21 1285.05C959.424 1285.05 959.014 1284.2 958.98 1282.5C958.827 1275.02 958.804 1267.76 958.91 1260.73C958.913 1260.64 958.898 1260.56 958.867 1260.48C958.835 1260.4 958.788 1260.33 958.727 1260.26C958.667 1260.2 958.594 1260.15 958.514 1260.12C958.434 1260.09 958.348 1260.07 958.26 1260.07L950.03 1260.04C949.771 1260.04 949.522 1259.94 949.33 1259.76C949.138 1259.59 949.017 1259.35 948.99 1259.09L948.95 1258.77C948.939 1258.63 948.957 1258.49 949.003 1258.36C949.049 1258.23 949.121 1258.11 949.216 1258.01C949.311 1257.91 949.426 1257.83 949.555 1257.77C949.683 1257.72 949.821 1257.69 949.96 1257.69C953.387 1257.7 956.82 1257.68 960.26 1257.62Z" fill="#040739"/>
<path d="M1070.09 1276.91C1070.4 1276.91 1070.69 1276.68 1070.95 1276.22C1074.95 1269.17 1078.42 1263.21 1081.35 1258.36C1081.6 1257.94 1082.06 1257.65 1082.72 1257.49C1082.91 1257.44 1083.1 1257.44 1083.29 1257.48C1083.48 1257.52 1083.65 1257.61 1083.8 1257.72C1083.95 1257.84 1084.08 1257.99 1084.16 1258.17C1084.25 1258.34 1084.29 1258.53 1084.29 1258.72V1283.82C1084.29 1283.98 1084.26 1284.15 1084.19 1284.3C1084.12 1284.45 1084.02 1284.58 1083.89 1284.69C1083.77 1284.79 1083.62 1284.87 1083.46 1284.92C1083.3 1284.96 1083.13 1284.97 1082.97 1284.95L1082.53 1284.88C1082.22 1284.83 1081.94 1284.68 1081.73 1284.44C1081.53 1284.2 1081.42 1283.9 1081.42 1283.59V1264.06C1081.42 1264 1081.4 1263.94 1081.36 1263.89C1081.32 1263.84 1081.27 1263.81 1081.21 1263.79C1081.15 1263.78 1081.09 1263.78 1081.04 1263.8C1080.98 1263.83 1080.93 1263.87 1080.9 1263.92C1076.96 1270.75 1073.75 1276.29 1071.28 1280.52C1070.97 1281.06 1070.57 1281.33 1070.09 1281.33C1069.6 1281.33 1069.2 1281.06 1068.89 1280.52C1066.42 1276.29 1063.21 1270.75 1059.28 1263.92C1059.25 1263.87 1059.2 1263.83 1059.14 1263.8C1059.09 1263.78 1059.03 1263.78 1058.97 1263.79C1058.91 1263.81 1058.86 1263.84 1058.82 1263.89C1058.78 1263.94 1058.76 1264 1058.76 1264.06L1058.75 1283.59C1058.75 1283.9 1058.64 1284.2 1058.44 1284.44C1058.23 1284.68 1057.95 1284.83 1057.64 1284.88L1057.2 1284.95C1057.04 1284.97 1056.87 1284.96 1056.71 1284.92C1056.55 1284.87 1056.4 1284.79 1056.28 1284.69C1056.15 1284.58 1056.05 1284.45 1055.98 1284.3C1055.91 1284.15 1055.88 1283.98 1055.88 1283.82L1055.89 1258.72C1055.89 1258.53 1055.93 1258.34 1056.02 1258.17C1056.1 1257.99 1056.23 1257.84 1056.38 1257.72C1056.53 1257.61 1056.7 1257.52 1056.89 1257.48C1057.08 1257.44 1057.27 1257.44 1057.46 1257.49C1058.12 1257.65 1058.58 1257.94 1058.83 1258.36C1061.76 1263.21 1065.22 1269.17 1069.23 1276.22C1069.49 1276.68 1069.78 1276.91 1070.09 1276.91Z" fill="#040739"/>
<path d="M1111.75 1272.19C1111.67 1272.19 1111.59 1272.21 1111.51 1272.24C1111.44 1272.27 1111.37 1272.32 1111.31 1272.38C1111.26 1272.44 1111.21 1272.51 1111.18 1272.59C1111.15 1272.67 1111.14 1272.75 1111.14 1272.83L1111.23 1281.31C1111.23 1281.52 1111.32 1281.71 1111.46 1281.86C1111.61 1282 1111.8 1282.09 1112.01 1282.09L1126.74 1282.34C1126.84 1282.34 1126.95 1282.36 1127.04 1282.4C1127.14 1282.44 1127.22 1282.5 1127.29 1282.57C1127.36 1282.65 1127.42 1282.74 1127.45 1282.83C1127.49 1282.93 1127.51 1283.03 1127.5 1283.13L1127.47 1283.44C1127.45 1283.72 1127.33 1283.98 1127.12 1284.18C1126.92 1284.37 1126.65 1284.48 1126.37 1284.48L1109.45 1284.79C1109.3 1284.79 1109.16 1284.77 1109.02 1284.71C1108.89 1284.66 1108.77 1284.58 1108.66 1284.47C1108.56 1284.37 1108.48 1284.25 1108.42 1284.11C1108.37 1283.98 1108.34 1283.84 1108.34 1283.69L1108.36 1258.25C1108.36 1258.16 1108.38 1258.06 1108.42 1257.98C1108.45 1257.89 1108.5 1257.81 1108.57 1257.75C1108.64 1257.68 1108.72 1257.63 1108.81 1257.6C1108.89 1257.56 1108.99 1257.55 1109.08 1257.55L1126.1 1257.99C1126.27 1258 1126.44 1258.05 1126.58 1258.15C1126.72 1258.25 1126.82 1258.38 1126.89 1258.54L1127.02 1258.85C1127.05 1258.94 1127.06 1259.03 1127.05 1259.12C1127.03 1259.21 1127 1259.29 1126.95 1259.37C1126.9 1259.44 1126.83 1259.51 1126.75 1259.55C1126.67 1259.59 1126.58 1259.62 1126.49 1259.62L1111.94 1260.07C1111.71 1260.08 1111.49 1260.18 1111.33 1260.34C1111.17 1260.51 1111.09 1260.73 1111.09 1260.96L1111.21 1268.7C1111.21 1268.93 1111.3 1269.15 1111.47 1269.32C1111.63 1269.48 1111.85 1269.57 1112.08 1269.58L1124.6 1269.91C1124.73 1269.91 1124.85 1269.94 1124.97 1269.99C1125.08 1270.04 1125.18 1270.12 1125.27 1270.21C1125.36 1270.3 1125.42 1270.41 1125.47 1270.53C1125.51 1270.65 1125.53 1270.77 1125.52 1270.9L1125.5 1271.17C1125.48 1271.41 1125.38 1271.63 1125.2 1271.79C1125.03 1271.96 1124.81 1272.05 1124.57 1272.05L1111.75 1272.19Z" fill="#040739"/>
<path d="M1149.84 1258.01C1149.84 1257.96 1149.85 1257.91 1149.87 1257.86C1149.89 1257.81 1149.92 1257.76 1149.96 1257.73C1149.99 1257.69 1150.04 1257.66 1150.09 1257.64C1150.14 1257.62 1150.19 1257.61 1150.24 1257.61L1161.95 1257.57C1163.73 1257.56 1165.49 1257.9 1167.13 1258.55C1168.78 1259.2 1170.27 1260.16 1171.54 1261.37C1172.8 1262.58 1173.8 1264.02 1174.48 1265.6C1175.17 1267.19 1175.52 1268.89 1175.53 1270.61V1271.53C1175.54 1275 1174.13 1278.33 1171.6 1280.79C1169.07 1283.25 1165.64 1284.64 1162.05 1284.65L1150.34 1284.69C1150.23 1284.69 1150.13 1284.65 1150.06 1284.57C1149.98 1284.5 1149.94 1284.4 1149.94 1284.29L1149.84 1258.01Z" fill="#040739"/>
<path d="M758.36 1274.85C758.36 1274.89 758.352 1274.93 758.337 1274.96C758.322 1275 758.3 1275.03 758.272 1275.06C758.244 1275.09 758.211 1275.11 758.174 1275.12C758.138 1275.13 758.099 1275.14 758.06 1275.14L757.89 1275.13C755.158 1275.11 752.539 1275.01 750.606 1274.84C748.673 1274.67 747.585 1274.46 747.58 1274.24V1274C747.577 1273.89 747.843 1273.79 748.361 1273.69C748.879 1273.59 749.639 1273.51 750.599 1273.44C751.559 1273.37 752.698 1273.32 753.953 1273.28C755.208 1273.25 756.552 1273.24 757.91 1273.25L758.08 1273.26C758.155 1273.26 758.226 1273.29 758.279 1273.35C758.331 1273.4 758.36 1273.47 758.36 1273.55V1274.85Z" fill="#040739"/>
<path d="M1230.6 620.13C1232.74 620.13 1234.48 618.393 1234.48 616.25C1234.48 614.107 1232.74 612.37 1230.6 612.37C1228.46 612.37 1226.72 614.107 1226.72 616.25C1226.72 618.393 1228.46 620.13 1230.6 620.13Z" fill="#259E69"/>
<path d="M1278.3 900.87C1278.44 908.9 1280.47 915.03 1285.39 921.29C1229.08 926.85 1176.59 907.04 1136.51 867.53C1127.78 858.92 1117.6 846.01 1110.99 837.97C1108.79 835.29 1106.14 834.603 1103.03 835.91C1096.94 838.47 1090.61 841.097 1084.05 843.79C1081.05 845.02 1076.86 846.57 1073.6 845.73C1066.29 843.85 1064.14 836.97 1065.87 830.09C1073.16 801.043 1079.23 777.363 1084.06 759.05C1086.37 750.3 1090.62 737.56 1101.99 738.01C1104.74 738.123 1107.08 738.553 1109.01 739.3C1131.5 748.053 1157.16 757.883 1185.99 768.79C1200.21 774.17 1201.09 790.49 1187.75 797.28C1184.96 798.7 1179.92 801.07 1172.63 804.39C1171.22 805.03 1170.02 805.68 1169.02 806.34C1168.8 806.488 1168.65 806.716 1168.59 806.977C1168.53 807.238 1168.58 807.511 1168.72 807.74C1187.98 839.11 1225.61 857.44 1261.4 860.19C1261.47 860.196 1261.54 860.221 1261.6 860.264C1261.66 860.308 1261.71 860.366 1261.73 860.434C1261.76 860.502 1261.77 860.576 1261.75 860.647C1261.74 860.719 1261.71 860.786 1261.66 860.84C1254.69 868.48 1258.06 878.78 1268.05 881.23C1268.3 881.296 1268.56 881.32 1268.83 881.3L1273.59 880.93C1273.68 880.922 1273.77 880.939 1273.85 880.978C1273.93 881.017 1274 881.078 1274.05 881.153C1274.09 881.228 1274.12 881.315 1274.12 881.404C1274.13 881.494 1274.1 881.582 1274.06 881.66C1272.2 884.96 1270.24 889.22 1268.18 894.44C1267.07 897.247 1267.72 899.55 1270.13 901.35C1272.9 903.417 1275.63 903.257 1278.3 900.87Z" fill="#22AD70"/>
<path d="M1285.39 921.29C1280.47 915.03 1278.44 908.9 1278.3 900.87C1283.98 894.51 1289.71 888.06 1295.5 881.52C1303.23 872.793 1309.15 863.237 1313.28 852.85C1313.67 851.873 1314.42 851.083 1315.37 850.64C1318.84 849.03 1322.8 847.27 1325.75 845.57C1346.48 833.603 1362.82 817.343 1374.78 796.79C1394.29 763.24 1394.59 721.22 1377.18 686.46C1370.74 673.61 1361.01 661.33 1350.83 650.77C1350.74 650.675 1350.67 650.558 1350.63 650.429C1350.59 650.301 1350.59 650.166 1350.62 650.035C1350.64 649.904 1350.7 649.782 1350.79 649.68C1350.88 649.578 1350.99 649.499 1351.11 649.45C1370.89 641.63 1389.19 632.65 1400.29 613.81C1400.33 613.741 1400.39 613.682 1400.46 613.639C1400.53 613.596 1400.6 613.569 1400.68 613.562C1400.77 613.554 1400.85 613.565 1400.92 613.594C1401 613.624 1401.07 613.67 1401.12 613.73C1441.26 656.97 1459.91 715.59 1448.43 774.23C1438.76 823.57 1407.79 867.1 1365.18 893.94C1341.19 909.053 1314.59 918.17 1285.39 921.29Z" fill="#22AD70"/>
<path d="M1224.9 636.52C1227.5 636.52 1229.6 634.416 1229.6 631.82C1229.6 629.224 1227.5 627.12 1224.9 627.12C1222.3 627.12 1220.2 629.224 1220.2 631.82C1220.2 634.416 1222.3 636.52 1224.9 636.52Z" fill="#259E69"/>
<path d="M1252.5 765.61C1258.28 765.61 1262.96 760.927 1262.96 755.15C1262.96 749.373 1258.28 744.69 1252.5 744.69C1246.72 744.69 1242.04 749.373 1242.04 755.15C1242.04 760.927 1246.72 765.61 1252.5 765.61Z" fill="#259E69"/>
<path d="M1263.61 790.12C1268.51 790.12 1272.49 786.144 1272.49 781.24C1272.49 776.336 1268.51 772.36 1263.61 772.36C1258.71 772.36 1254.73 776.336 1254.73 781.24C1254.73 786.144 1258.71 790.12 1263.61 790.12Z" fill="#259E69"/>
<path d="M1272.28 814.13C1276.74 814.13 1280.36 810.512 1280.36 806.05C1280.36 801.588 1276.74 797.97 1272.28 797.97C1267.82 797.97 1264.2 801.588 1264.2 806.05C1264.2 810.512 1267.82 814.13 1272.28 814.13Z" fill="#259E69"/>
<path d="M1275.74 837.84C1279.57 837.84 1282.68 834.733 1282.68 830.9C1282.68 827.067 1279.57 823.96 1275.74 823.96C1271.91 823.96 1268.8 827.067 1268.8 830.9C1268.8 834.733 1271.91 837.84 1275.74 837.84Z" fill="#259E69"/>
<path d="M1273.85 856.22C1277.3 856.22 1280.1 853.422 1280.1 849.97C1280.1 846.518 1277.3 843.72 1273.85 843.72C1270.4 843.72 1267.6 846.518 1267.6 849.97C1267.6 853.422 1270.4 856.22 1273.85 856.22Z" fill="#259E69"/>
<path d="M1281.78 864.16C1281.75 864.224 1281.71 864.281 1281.66 864.329C1281.61 864.377 1281.55 864.415 1281.49 864.44C1281.42 864.465 1281.35 864.477 1281.28 864.476C1281.21 864.474 1281.14 864.458 1281.08 864.43L1280.9 864.34C1280.3 864.072 1279.83 863.589 1279.59 862.997C1279.35 862.404 1279.36 861.751 1279.61 861.18L1279.65 861.09C1279.91 860.519 1280.39 860.078 1280.99 859.865C1281.6 859.651 1282.27 859.682 1282.87 859.95L1283.05 860.03C1283.11 860.058 1283.17 860.099 1283.22 860.149C1283.27 860.2 1283.31 860.259 1283.33 860.324C1283.36 860.389 1283.37 860.458 1283.37 860.528C1283.36 860.598 1283.35 860.666 1283.32 860.73L1281.78 864.16Z" fill="#259E69"/>
<path d="M1269.89 875.29C1273.11 875.29 1275.72 872.68 1275.72 869.46C1275.72 866.24 1273.11 863.63 1269.89 863.63C1266.67 863.63 1264.06 866.24 1264.06 869.46C1264.06 872.68 1266.67 875.29 1269.89 875.29Z" fill="#259E69"/>
<path d="M1371.75 1100.81C1371.82 1100.78 1371.91 1100.75 1372.02 1100.71C1372.07 1100.69 1372.12 1100.66 1372.15 1100.63C1372.19 1100.59 1372.22 1100.55 1372.24 1100.5L1410.62 1013.95C1410.73 1013.71 1410.9 1013.5 1411.13 1013.36C1411.35 1013.22 1411.61 1013.14 1411.88 1013.14H1448.42C1448.52 1013.14 1448.62 1013.16 1448.71 1013.21C1448.8 1013.26 1448.87 1013.33 1448.93 1013.41C1448.98 1013.5 1449.02 1013.59 1449.02 1013.69C1449.03 1013.79 1449.01 1013.89 1448.97 1013.98C1411.34 1097.42 1385.52 1154.6 1371.5 1185.52C1363.32 1203.57 1350.88 1216.82 1330.19 1219.18C1319.2 1220.43 1307.85 1220.75 1296.14 1220.12C1295.98 1220.11 1295.84 1220.04 1295.73 1219.93C1295.62 1219.81 1295.56 1219.67 1295.56 1219.51V1187.95C1295.56 1187.86 1295.58 1187.78 1295.61 1187.7C1295.65 1187.62 1295.7 1187.55 1295.76 1187.49C1295.82 1187.43 1295.9 1187.39 1295.98 1187.36C1296.06 1187.33 1296.14 1187.31 1296.23 1187.32C1300.02 1187.51 1305.61 1187.52 1313 1187.33C1322.07 1187.11 1329.84 1185.85 1335.69 1178.67C1338.22 1175.57 1340.37 1172.07 1342.16 1168.16C1343.93 1164.29 1347.51 1156.27 1352.89 1144.12C1353.5 1142.75 1353.52 1141.48 1352.95 1140.3C1347.99 1129.95 1328.16 1089.2 1293.45 1018.05C1293.2 1017.54 1292.61 1016.17 1291.67 1013.92C1291.63 1013.83 1291.62 1013.73 1291.63 1013.64C1291.64 1013.54 1291.67 1013.45 1291.73 1013.37C1291.78 1013.29 1291.85 1013.22 1291.94 1013.18C1292.02 1013.13 1292.11 1013.11 1292.21 1013.11H1329.07C1329.27 1013.11 1329.47 1013.17 1329.64 1013.27C1329.81 1013.38 1329.94 1013.53 1330.03 1013.71L1371.43 1100.66C1371.46 1100.72 1371.51 1100.77 1371.57 1100.79C1371.62 1100.82 1371.69 1100.83 1371.75 1100.81Z" fill="#259E69"/>
<path d="M538.88 1041.58C554.55 1041.57 563.73 1054.5 567.24 1068.19C567.267 1068.29 567.272 1068.39 567.253 1068.49C567.234 1068.6 567.192 1068.69 567.13 1068.77C567.068 1068.86 566.988 1068.92 566.896 1068.97C566.804 1069.01 566.703 1069.04 566.6 1069.04C566.433 1069.04 557.196 1069.04 538.89 1069.05C520.583 1069.06 511.343 1069.06 511.17 1069.06C511.068 1069.06 510.968 1069.03 510.877 1068.99C510.786 1068.94 510.707 1068.88 510.645 1068.8C510.583 1068.72 510.541 1068.62 510.521 1068.52C510.501 1068.42 510.504 1068.32 510.53 1068.22C514.04 1054.52 523.21 1041.58 538.88 1041.58Z" fill="white"/>
<path d="M1118.99 1068.99C1100.72 1069 1091.49 1069.01 1091.32 1069C1091.22 1069 1091.12 1068.97 1091.03 1068.93C1090.94 1068.88 1090.86 1068.82 1090.8 1068.74C1090.73 1068.66 1090.69 1068.56 1090.67 1068.46C1090.65 1068.36 1090.65 1068.26 1090.68 1068.16C1094.18 1054.49 1103.33 1041.57 1118.97 1041.56C1134.61 1041.55 1143.77 1054.45 1147.29 1068.12C1147.32 1068.22 1147.32 1068.32 1147.3 1068.42C1147.28 1068.52 1147.24 1068.62 1147.18 1068.7C1147.11 1068.78 1147.03 1068.84 1146.94 1068.89C1146.85 1068.93 1146.75 1068.96 1146.65 1068.96C1146.48 1068.97 1137.26 1068.98 1118.99 1068.99Z" fill="white"/>
<path d="M867.27 1082.37C867.27 1061.37 851.179 1044.34 831.33 1044.34C811.481 1044.34 795.39 1061.37 795.39 1082.37C795.39 1103.37 811.481 1120.4 831.33 1120.4C851.179 1120.4 867.27 1103.37 867.27 1082.37Z" fill="white"/>
<path d="M602.34 1260.62C602.34 1260.45 602.408 1260.28 602.53 1260.16C602.652 1260.04 602.817 1259.97 602.99 1259.97L611.39 1259.96C612.219 1259.96 613.04 1260.07 613.806 1260.3C614.572 1260.52 615.269 1260.85 615.856 1261.27C616.443 1261.68 616.909 1262.18 617.227 1262.72C617.545 1263.27 617.709 1263.85 617.71 1264.44V1265.26C617.712 1266.45 617.049 1267.59 615.867 1268.44C614.686 1269.28 613.083 1269.76 611.41 1269.76L603.01 1269.77C602.837 1269.77 602.672 1269.7 602.55 1269.58C602.428 1269.46 602.36 1269.29 602.36 1269.12L602.34 1260.62Z" fill="white"/>
<path d="M821.74 1260.29C821.74 1260.23 821.763 1260.18 821.804 1260.13C821.845 1260.09 821.901 1260.07 821.96 1260.07L830.19 1260.08C832.07 1260.08 833.872 1260.75 835.2 1261.92C836.527 1263.1 837.272 1264.7 837.27 1266.36V1267.32C837.269 1268.14 837.084 1268.96 836.727 1269.72C836.369 1270.48 835.846 1271.17 835.187 1271.75C834.527 1272.33 833.745 1272.79 832.884 1273.11C832.023 1273.42 831.101 1273.58 830.17 1273.58L821.94 1273.57C821.881 1273.57 821.825 1273.55 821.784 1273.51C821.743 1273.46 821.72 1273.41 821.72 1273.35L821.74 1260.29Z" fill="white"/>
<path d="M874.21 1282.45C880.473 1282.45 885.55 1277.37 885.55 1271.11C885.55 1264.85 880.473 1259.77 874.21 1259.77C867.947 1259.77 862.87 1264.85 862.87 1271.11C862.87 1277.37 867.947 1282.45 874.21 1282.45Z" fill="white"/>
<path d="M913.15 1260.94C913.149 1260.84 913.167 1260.74 913.204 1260.65C913.241 1260.56 913.296 1260.47 913.366 1260.4C913.436 1260.33 913.519 1260.27 913.61 1260.23C913.702 1260.19 913.801 1260.17 913.9 1260.17L921.26 1260.1C923.232 1260.08 925.13 1260.71 926.536 1261.86C927.943 1263.01 928.743 1264.58 928.76 1266.22L928.78 1267.3C928.789 1268.11 928.605 1268.92 928.239 1269.68C927.873 1270.44 927.332 1271.13 926.646 1271.71C925.961 1272.29 925.145 1272.76 924.245 1273.08C923.345 1273.4 922.378 1273.57 921.4 1273.58L914.04 1273.65C913.941 1273.65 913.842 1273.63 913.749 1273.6C913.656 1273.56 913.572 1273.5 913.5 1273.43C913.429 1273.36 913.372 1273.28 913.332 1273.19C913.293 1273.1 913.272 1273 913.27 1272.9L913.15 1260.94Z" fill="white"/>
<path d="M1152.62 1260.83C1152.62 1260.65 1152.69 1260.47 1152.82 1260.34C1152.95 1260.21 1153.13 1260.13 1153.31 1260.13L1161.45 1260.09C1162.91 1260.08 1164.36 1260.35 1165.72 1260.88C1167.07 1261.41 1168.31 1262.2 1169.35 1263.19C1170.39 1264.18 1171.21 1265.35 1171.78 1266.65C1172.35 1267.95 1172.64 1269.34 1172.65 1270.75V1271.39C1172.67 1274.23 1171.51 1276.97 1169.43 1278.99C1167.35 1281.01 1164.52 1282.15 1161.57 1282.17L1153.43 1282.21C1153.34 1282.21 1153.25 1282.19 1153.16 1282.16C1153.07 1282.13 1152.99 1282.07 1152.93 1282.01C1152.86 1281.94 1152.81 1281.87 1152.77 1281.78C1152.74 1281.69 1152.72 1281.6 1152.72 1281.51L1152.62 1260.83Z" fill="white"/>
<path d="M602.29 1273.16C602.289 1273.04 602.31 1272.93 602.353 1272.82C602.396 1272.72 602.46 1272.62 602.541 1272.53C602.622 1272.45 602.718 1272.39 602.824 1272.34C602.93 1272.3 603.045 1272.27 603.16 1272.27L612.49 1272.14C614.23 1272.12 615.906 1272.55 617.149 1273.36C618.392 1274.16 619.101 1275.27 619.12 1276.43L619.14 1277.85C619.156 1279.01 618.479 1280.14 617.258 1280.98C616.037 1281.82 614.372 1282.31 612.63 1282.33L603.3 1282.46C603.068 1282.46 602.845 1282.37 602.678 1282.21C602.512 1282.05 602.415 1281.83 602.41 1281.6L602.29 1273.16Z" fill="white"/>
</g>
<defs>
<clipPath id="clip0_15_3764">
<rect width="1773" height="1773" fill="white"/>
</clipPath>
</defs>
</svg>
